<svg width="218" height="216" viewBox="0 0 218 216" fill="none" xmlns="http://www.w3.org/2000/svg">
<path d="M23.3352 72.3635C21.798 65.4541 22.0341 58.2693 24.0214 51.4753C26.0086 44.6812 29.6828 38.4978 34.7033 33.4985C39.7237 28.4991 45.9278 24.8457 52.7404 22.8768C59.553 20.908 66.7535 20.6875 73.6743 22.2358C77.4835 16.2909 82.7311 11.3986 88.9334 8.00971C95.1358 4.62086 102.093 2.84456 109.164 2.84456C116.236 2.84456 123.193 4.62086 129.395 8.00971C135.598 11.3986 140.845 16.2909 144.654 22.2358C151.586 20.6807 158.799 20.9002 165.622 22.8739C172.446 24.8475 178.658 28.5111 183.681 33.524C188.705 38.5369 192.376 44.7362 194.354 51.5453C196.332 58.3543 196.552 65.5519 194.994 72.4686C200.951 76.2698 205.854 81.5063 209.25 87.6955C212.646 93.8847 214.426 100.827 214.426 107.884C214.426 114.94 212.646 121.883 209.25 128.072C205.854 134.261 200.951 139.498 194.994 143.299C196.545 150.205 196.324 157.39 194.351 164.188C192.378 170.987 188.717 177.178 183.707 182.188C178.697 187.197 172.501 190.864 165.692 192.847C158.884 194.83 151.684 195.065 144.76 193.532C140.956 199.499 135.704 204.413 129.491 207.817C123.278 211.221 116.305 213.005 109.217 213.005C102.129 213.005 95.1561 211.221 88.9432 207.817C82.7303 204.413 77.4785 199.499 73.6743 193.532C66.7535 195.08 59.553 194.859 52.7404 192.891C45.9278 190.922 39.7237 187.268 34.7033 182.269C29.6828 177.27 26.0086 171.086 24.0214 164.292C22.0341 157.498 21.798 150.313 23.3352 143.404C17.3319 139.613 12.3871 134.368 8.9606 128.158C5.53412 121.947 3.7373 114.973 3.7373 107.884C3.7373 100.794 5.53412 93.8201 8.9606 87.6097C12.3871 81.3994 17.3319 76.1547 23.3352 72.3635Z" fill="#FF7C7C" stroke="#FF7C7C" stroke-width="5.60477" stroke-linecap="round" stroke-linejoin="round"/>
</svg>
