<svg width="93" height="38" viewBox="0 0 93 38" fill="none" xmlns="http://www.w3.org/2000/svg">
<path d="M4.98681 14.6206C4.79772 13.7688 4.82676 12.8832 5.07121 12.0456C5.31567 11.2081 5.76764 10.4459 6.38521 9.82962C7.00278 9.21334 7.76596 8.76297 8.60398 8.52027C9.44201 8.27756 10.3277 8.25038 11.1791 8.44125C11.6477 7.70841 12.2932 7.10532 13.0561 6.68757C13.8191 6.26982 14.6749 6.05086 15.5448 6.05086C16.4146 6.05086 17.2704 6.26982 18.0334 6.68757C18.7963 7.10532 19.4419 7.70841 19.9104 8.44125C20.7631 8.24955 21.6503 8.27661 22.4897 8.5199C23.3291 8.76319 24.0932 9.21482 24.7112 9.83277C25.3291 10.4507 25.7808 11.2149 26.0241 12.0543C26.2674 12.8936 26.2944 13.7809 26.1027 14.6335C26.8356 15.1021 27.4386 15.7476 27.8564 16.5106C28.2741 17.2735 28.4931 18.1294 28.4931 18.9992C28.4931 19.869 28.2741 20.7249 27.8564 21.4878C27.4386 22.2508 26.8356 22.8963 26.1027 23.3649C26.2936 24.2162 26.2664 25.102 26.0237 25.94C25.781 26.778 25.3306 27.5412 24.7143 28.1588C24.0981 28.7763 23.3358 29.2283 22.4983 29.4727C21.6608 29.7172 20.7751 29.7462 19.9234 29.5572C19.4554 30.2928 18.8094 30.8985 18.0451 31.3181C17.2809 31.7377 16.4231 31.9577 15.5512 31.9577C14.6794 31.9577 13.8216 31.7377 13.0573 31.3181C12.2931 30.8985 11.647 30.2928 11.1791 29.5572C10.3277 29.748 9.44201 29.7208 8.60398 29.4781C7.76596 29.2354 7.00278 28.7851 6.38521 28.1688C5.76764 27.5525 5.31567 26.7903 5.07121 25.9528C4.82676 25.1152 4.79772 24.2296 4.98681 23.3778C4.24834 22.9105 3.64007 22.264 3.21857 21.4984C2.79708 20.7329 2.57605 19.8731 2.57605 18.9992C2.57605 18.1253 2.79708 17.2656 3.21857 16.5C3.64007 15.7344 4.24834 15.0879 4.98681 14.6206Z" fill="#171A20" stroke="#171A20" stroke-width="0.690909" stroke-linecap="round" stroke-linejoin="round"/>
<g clip-path="url(#clip0_1_823)">
<path d="M10.9303 14.3849L14.7942 23.6758L16.166 19.637L20.2211 18.2488L10.9303 14.3849Z" fill="white" stroke="white" stroke-width="2.76364" stroke-linecap="round" stroke-linejoin="round"/>
</g>
<path d="M43.7946 7.40909V12.0036H47.1455V15.7345H43.7946V22.5055C43.7946 22.9661 43.8406 23.3461 43.9328 23.6455C44.0249 23.9448 44.1515 24.1867 44.3128 24.3709C44.474 24.5321 44.6582 24.6473 44.8655 24.7164C45.0728 24.7855 45.28 24.82 45.4873 24.82C45.7176 24.82 45.9249 24.82 46.1091 24.82C46.2934 24.797 46.5006 24.7624 46.7309 24.7164V28.8964C46.3855 28.9885 45.9479 29.0576 45.4182 29.1036C44.8885 29.1727 44.2897 29.2073 43.6219 29.2073C42.9079 29.2073 42.2515 29.1267 41.6528 28.9655C41.054 28.7812 40.5243 28.4933 40.0637 28.1018C39.534 27.6412 39.1309 27.0309 38.8546 26.2709C38.5782 25.4879 38.44 24.3939 38.44 22.9891V15.7345H36.4709V12.0036H38.44V8.96363L43.7946 7.40909ZM52.4633 12.0036L53.8797 20.4673C53.9488 20.9048 54.0179 21.3309 54.087 21.7455C54.1561 22.16 54.2136 22.5861 54.2597 23.0236H54.3288L54.6051 20.5364L55.7451 12.0036H60.9615L57.1961 26.0636C56.8276 27.4455 56.3555 28.8158 55.7797 30.1745C55.2039 31.5333 54.4785 32.7194 53.6033 33.7327C52.8203 34.6079 52.0142 35.2527 51.1851 35.6673C50.3791 36.1048 49.7803 36.3697 49.3888 36.4618L47.8688 31.8327C48.2603 31.7176 48.6403 31.5679 49.0088 31.3836C49.3773 31.1994 49.7227 30.9806 50.0451 30.7273C50.6439 30.2667 51.1045 29.7139 51.427 29.0691C51.5882 28.7927 51.6688 28.5624 51.6688 28.3782C51.6688 28.263 51.6573 28.1594 51.6342 28.0673C51.6112 27.9752 51.5767 27.8715 51.5306 27.7564L46.6942 12.0036H52.4633ZM61.2433 17.4273C61.2433 16.5291 61.2318 15.6194 61.2087 14.6982C61.1857 13.777 61.1512 12.8788 61.1051 12.0036H65.6996L65.976 13.9382H66.0451C66.5057 13.2703 67.1045 12.7406 67.8415 12.3491C68.5784 11.9345 69.3845 11.7273 70.2596 11.7273C71.1578 11.7273 71.9063 11.9 72.5051 12.2455C73.1039 12.5909 73.5875 13.063 73.956 13.6618C74.3245 14.2606 74.5778 14.963 74.716 15.7691C74.8772 16.5521 74.9578 17.4042 74.9578 18.3255V29H69.6033V18.4982C69.6033 17.8994 69.4996 17.3697 69.2924 16.9091C69.1081 16.4485 68.7512 16.2182 68.2215 16.2182C67.6457 16.2182 67.1966 16.5521 66.8742 17.22C66.8051 17.3812 66.736 17.6 66.6669 17.8764C66.6208 18.1527 66.5978 18.4636 66.5978 18.8091V29H61.2433V17.4273ZM84.9568 18.9818C84.9568 18.5673 84.9338 18.1527 84.8877 17.7382C84.8417 17.3236 84.7611 16.9552 84.6459 16.6327C84.5308 16.3103 84.3581 16.0455 84.1277 15.8382C83.9205 15.6309 83.6441 15.5273 83.2987 15.5273C82.9532 15.5273 82.6653 15.6424 82.435 15.8727C82.2047 16.08 82.0205 16.3564 81.8823 16.7018C81.7441 17.0473 81.6405 17.4273 81.5714 17.8418C81.5023 18.2333 81.4677 18.6133 81.4677 18.9818H84.9568ZM81.4677 22.6782C81.5138 23.4612 81.8362 24.0715 82.435 24.5091C83.0338 24.9467 83.8514 25.1655 84.8877 25.1655C85.5556 25.1655 86.1774 25.1079 86.7532 24.9927C87.329 24.8776 87.8471 24.7509 88.3077 24.6127L88.9641 28.4127C88.3423 28.643 87.5823 28.8273 86.6841 28.9655C85.7859 29.1036 84.8647 29.1727 83.9205 29.1727C81.4793 29.1727 79.6023 28.4703 78.2896 27.0655C76.9768 25.6376 76.3205 23.5764 76.3205 20.8818C76.3205 19.4309 76.5047 18.1412 76.8732 17.0127C77.2647 15.8612 77.7829 14.8939 78.4277 14.1109C79.0956 13.3279 79.8671 12.7291 80.7423 12.3145C81.6174 11.9 82.5617 11.6927 83.575 11.6927C85.4405 11.6927 86.9374 12.3606 88.0659 13.6964C89.1944 15.0091 89.7587 17.0933 89.7587 19.9491C89.7587 20.6861 89.7356 21.2618 89.6896 21.6764C89.6665 22.0909 89.632 22.4364 89.5859 22.7127L81.4677 22.6782Z" fill="#171A20"/>
<defs>
<clipPath id="clip0_1_823">
<rect width="13.1165" height="13.1165" fill="white" transform="translate(8.74426 12.1989)"/>
</clipPath>
</defs>
</svg>
