<svg width="102" height="102" viewBox="0 0 102 102" fill="none" xmlns="http://www.w3.org/2000/svg">
<path d="M10.3018 34.0789C9.57225 30.7913 9.68427 27.3726 10.6275 24.1398C11.5707 20.907 13.3146 17.9648 15.6975 15.5859C18.0804 13.2071 21.0251 11.4687 24.2586 10.5319C27.492 9.59504 30.9096 9.49013 34.1945 10.2269C36.0025 7.39813 38.4932 5.07022 41.437 3.45771C44.3808 1.84521 47.6831 1 51.0393 1C54.3955 1 57.6978 1.84521 60.6416 3.45771C63.5854 5.07022 66.0761 7.39813 67.8841 10.2269C71.1739 9.48693 74.5974 9.59136 77.836 10.5305C81.0747 11.4696 84.0233 13.2128 86.4076 15.5981C88.792 17.9834 90.5346 20.9332 91.4733 24.1731C92.412 27.413 92.5164 30.8378 91.7768 34.1289C94.6044 35.9376 96.9314 38.4293 98.5433 41.3743C100.155 44.3193 101 47.6228 101 50.9804C101 54.338 100.155 57.6415 98.5433 60.5865C96.9314 63.5315 94.6044 66.0232 91.7768 67.8319C92.5132 71.118 92.4083 74.5369 91.4719 77.7717C90.5354 81.0065 88.7977 83.9523 86.4198 86.3361C84.0419 88.7199 81.1009 90.4645 77.8693 91.4081C74.6378 92.3517 71.2205 92.4638 67.9341 91.7339C66.1285 94.5735 63.6358 96.9114 60.6869 98.5311C57.7381 100.151 54.4284 101 51.0643 101C47.7002 101 44.3905 100.151 41.4416 98.5311C38.4928 96.9114 36.0001 94.5735 34.1945 91.7339C30.9096 92.4707 27.492 92.3658 24.2586 91.4289C21.0251 90.4921 18.0804 88.7537 15.6975 86.3749C13.3146 83.996 11.5707 81.0538 10.6275 77.821C9.68427 74.5882 9.57225 71.1695 10.3018 67.8819C7.45248 66.0779 5.10548 63.5824 3.47916 60.6273C1.85283 57.6723 1 54.3537 1 50.9804C1 47.6071 1.85283 44.2885 3.47916 41.3335C5.10548 38.3784 7.45248 35.8829 10.3018 34.0789Z" fill="white" stroke="#171A20" stroke-width="0.690909" stroke-linecap="round" stroke-linejoin="round"/>
<path d="M73.6855 48.7071C71.3731 60.6751 59.2201 69.0816 54.1037 72.142C53.1449 72.7116 52.0722 73 50.9995 73C49.9268 73 48.8542 72.714 47.8953 72.142C42.7765 69.0791 30.6235 60.6751 28.3111 48.7071C27.345 43.7033 28.6598 38.3989 31.8294 34.5122C34.7302 30.958 38.7618 29 43.1833 29C45.9654 29 48.6508 29.7113 50.9995 31.0631C53.3483 29.7113 56.0336 29 58.8158 29C63.2372 29 67.2688 30.958 70.1697 34.5122C73.3393 38.3989 74.6565 43.7033 73.6879 48.7071H73.6855Z" fill="black"/>
</svg>
